<?xml version="1.0" encoding="iso-8859-1"?>
<!-- Generator: Adobe Illustrator 18.0.0, SVG Export Plug-In . SVG Version: 6.00 Build 0)  -->
<!DOCTYPE svg PUBLIC "-//W3C//DTD SVG 1.1//EN" "http://www.w3.org/Graphics/SVG/1.1/DTD/svg11.dtd">
<svg version="1.1" id="&#x56FE;&#x5C42;_1" xmlns="http://www.w3.org/2000/svg" xmlns:xlink="http://www.w3.org/1999/xlink" x="0px"
	 y="0px" viewBox="0 0 12 12" style="enable-background:new 0 0 12 12;" xml:space="preserve">
<g id="Star_grey_1_" transform="translate(64.000000, 0.000000)">
	<g>
		<polygon style="fill:#D8D8D8;" points="-58,8.977 -60.939,10.523 -60.378,7.25 -62.755,4.932 -59.469,4.455 -58,1.477 
			-56.531,4.455 -53.245,4.932 -55.622,7.25 -55.061,10.523 		"/>
		<path style="fill:#979797;" d="M-54.397,11.437L-58,9.542l-3.603,1.894l0.688-4.012l-2.914-2.841l4.027-0.585L-58,0.348
			l1.802,3.65l4.027,0.585l-2.914,2.841L-54.397,11.437z M-58,8.413l2.274,1.196l-0.434-2.533l1.84-1.794l-2.543-0.369L-58,2.607
			l-1.138,2.305l-2.543,0.369l1.84,1.794l-0.434,2.533L-58,8.413z"/>
	</g>
</g>
</svg>
