<?xml version="1.0" encoding="iso-8859-1"?>
<!-- Generator: Adobe Illustrator 18.0.0, SVG Export Plug-In . SVG Version: 6.00 Build 0)  -->
<!DOCTYPE svg PUBLIC "-//W3C//DTD SVG 1.1//EN" "http://www.w3.org/Graphics/SVG/1.1/DTD/svg11.dtd">
<svg version="1.1" id="&#x56FE;&#x5C42;_1" xmlns="http://www.w3.org/2000/svg" xmlns:xlink="http://www.w3.org/1999/xlink" x="0px"
	 y="0px" viewBox="0 0 12 12" style="enable-background:new 0 0 12 12;" xml:space="preserve">
<g id="star_yellow_4_" transform="translate(49.000000, 1.000000)">
	<g>
		<polygon style="fill:#FF8A09;" points="-43,7.977 -45.939,9.523 -45.378,6.25 -47.755,3.932 -44.469,3.455 -43,0.477 
			-41.531,3.455 -38.245,3.932 -40.622,6.25 -40.061,9.523 		"/>
		<path style="fill:#E86600;" d="M-39.397,10.437L-43,8.542l-3.603,1.894l0.688-4.012l-2.916-2.841l4.029-0.585L-43-0.652
			l1.801,3.65l4.029,0.585l-2.916,2.841L-39.397,10.437z M-43,7.413l2.275,1.196l-0.435-2.533l1.84-1.794l-2.543-0.369L-43,1.607
			l-1.137,2.305l-2.543,0.369l1.84,1.794l-0.435,2.533L-43,7.413z"/>
	</g>
</g>
</svg>
